<?xml version="1.0" encoding="UTF-8" standalone="no"?>
<svg width="141.464mm" height="101.6mm"
 xmlns="http://www.w3.org/2000/svg" xmlns:xlink="http://www.w3.org/1999/xlink"  version="1.2" baseProfile="tiny">
<title>Qt SVG Document</title>
<desc>Generated with Qt</desc>
<defs>
</defs>
<g fill="none" stroke="black" stroke-width="1" fill-rule="evenodd" stroke-linecap="square" stroke-linejoin="bevel" >

<g fill="none" stroke="#000000" stroke-opacity="1" stroke-width="1" stroke-linecap="square" stroke-linejoin="bevel" transform="matrix(1,0,0,1,0,0)"
font-family="Ubuntu" font-size="11" font-weight="400" font-style="normal" 
>
</g>

<g fill="none" stroke="#000000" stroke-opacity="1" stroke-width="1" stroke-linecap="square" stroke-linejoin="bevel" transform="matrix(1,0,0,1,0,0)"
font-family="Ubuntu" font-size="11" font-weight="400" font-style="normal" 
>
</g>

<g fill="none" stroke="#000000" stroke-opacity="1" stroke-width="1" stroke-linecap="square" stroke-linejoin="bevel" transform="matrix(1.99916,0,0,1.99916,0,287.879)"
font-family="Ubuntu" font-size="11" font-weight="400" font-style="normal" 
>
</g>

<g fill="#ffffff" fill-opacity="1" stroke="none" transform="matrix(1.99916,0,0,1.99916,0,287.879)"
font-family="Ubuntu" font-size="11" font-weight="400" font-style="normal" 
>
<rect x="0" y="-144" width="200.584" height="144"/>
</g>

<g fill="none" stroke="#000000" stroke-opacity="1" stroke-width="1" stroke-linecap="square" stroke-linejoin="bevel" transform="matrix(1.99916,0,0,1.99916,0,287.879)"
font-family="Ubuntu" font-size="11" font-weight="400" font-style="normal" 
>
</g>

<g fill="none" stroke="#000000" stroke-opacity="1" stroke-width="1" stroke-linecap="square" stroke-linejoin="bevel" transform="matrix(1.99916,0,0,1.99916,0,287.879)"
font-family="Ubuntu" font-size="11" font-weight="400" font-style="normal" 
>
</g>

<g fill="none" stroke="#000000" stroke-opacity="1" stroke-width="1" stroke-linecap="square" stroke-linejoin="bevel" transform="matrix(1.99916,0,0,1.99916,0,287.879)"
font-family="Ubuntu" font-size="11" font-weight="400" font-style="normal" 
>
</g>

<g fill="none" stroke="#000000" stroke-opacity="1" stroke-width="1" stroke-linecap="square" stroke-linejoin="bevel" transform="matrix(1.99916,0,0,1.99916,0,287.879)"
font-family="Ubuntu" font-size="11" font-weight="400" font-style="normal" 
>
</g>

<g fill="none" stroke="#000000" stroke-opacity="1" stroke-width="1" stroke-linecap="square" stroke-linejoin="round" transform="matrix(1.99916,0,0,1.99916,0,287.879)"
font-family="Ubuntu" font-size="11" font-weight="400" font-style="normal" 
>
<rect x="0.5" y="-89.5" width="53" height="35"/>
</g>

<g fill="none" stroke="#000000" stroke-opacity="1" stroke-width="1" stroke-linecap="square" stroke-linejoin="bevel" transform="matrix(1.99916,0,0,1.99916,0,287.879)"
font-family="Ubuntu" font-size="11" font-weight="400" font-style="normal" 
>
</g>

<g fill="none" stroke="#000000" stroke-opacity="1" stroke-width="1" stroke-linecap="square" stroke-linejoin="bevel" transform="matrix(1.99916,0,0,1.99916,25.2238,129.946)"
font-family="Ubuntu" font-size="11" font-weight="400" font-style="normal" 
>
</g>

<g fill="none" stroke="#000000" stroke-opacity="1" stroke-width="1" stroke-linecap="square" stroke-linejoin="bevel" transform="matrix(1.99916,0,0,1.99916,25.2238,129.946)"
font-family="sans" font-size="11" font-weight="100" font-style="normal" 
>
</g>

<g fill="#000000" fill-opacity="1" stroke="#000000" stroke-opacity="1" stroke-width="1" stroke-linecap="square" stroke-linejoin="round" transform="matrix(1.99916,0,0,1.99916,25.2238,129.946)"
font-family="sans" font-size="11" font-weight="100" font-style="normal" 
>
<path vector-effect="none" fill-rule="nonzero" d="M2.79688,2.98438 L3.70313,2.98438 L0.90625,12.0156 L0,12.0156 L2.79688,2.98438 M9.0625,5.21875 L9.0625,6.14063 C8.79167,5.98438 8.51563,5.86719 8.23438,5.78906 C7.95313,5.71094 7.66667,5.67188 7.375,5.67188 C6.73958,5.67188 6.24479,5.875 5.89063,6.28125 C5.53646,6.6875 5.35938,7.26042 5.35938,8 C5.35938,8.72917 5.53646,9.29688 5.89063,9.70313 C6.24479,10.1094 6.73958,10.3125 7.375,10.3125 C7.66667,10.3125 7.95313,10.276 8.23438,10.2031 C8.51563,10.1302 8.79167,10.0156 9.0625,9.85938 L9.0625,10.7656 C8.79167,10.901 8.50781,11 8.21094,11.0625 C7.91406,11.125 7.59896,11.1563 7.26563,11.1563 C6.35938,11.1563 5.64063,10.8724 5.10938,10.3047 C4.57813,9.73698 4.3125,8.96875 4.3125,8 C4.3125,7.02083 4.58073,6.25 5.11719,5.6875 C5.65365,5.125 6.39063,4.84375 7.32813,4.84375 C7.64063,4.84375 7.9401,4.875 8.22656,4.9375 C8.51302,5 8.79167,5.09375 9.0625,5.21875 M15.7813,7.375 L15.7813,11 L14.7969,11 L14.7969,7.40625 C14.7969,6.83333 14.6875,6.40625 14.4688,6.125 C14.25,5.84375 13.9167,5.70313 13.4688,5.70313 C12.9375,5.70313 12.5182,5.8724 12.2109,6.21094 C11.9036,6.54948 11.75,7.01042 11.75,7.59375 L11.75,11 L10.75,11 L10.75,2.64063 L11.75,2.64063 L11.75,5.92188 C11.9792,5.55729 12.2552,5.28646 12.5781,5.10938 C12.901,4.93229 13.2708,4.84375 13.6875,4.84375 C14.375,4.84375 14.8958,5.05729 15.25,5.48438 C15.6042,5.91146 15.7813,6.54167 15.7813,7.375 M20.4844,7.96875 C19.6927,7.96875 19.1432,8.0625 18.8359,8.25 C18.5286,8.4375 18.375,8.75 18.375,9.1875 C18.375,9.53125 18.4896,9.80729 18.7188,10.0156 C18.9479,10.224 19.2604,10.3281 19.6563,10.3281 C20.2083,10.3281 20.6484,10.1328 20.9766,9.74219 C21.3047,9.35156 21.4688,8.83854 21.4688,8.20313 L21.4688,7.96875 L20.4844,7.96875 M22.4531,7.5625 L22.4531,11 L21.4688,11 L21.4688,10.0938 C21.25,10.4583 20.9714,10.7266 20.6328,10.8984 C20.2943,11.0703 19.8802,11.1563 19.3906,11.1563 C18.776,11.1563 18.2865,10.9844 17.9219,10.6406 C17.5573,10.2969 17.375,9.83333 17.375,9.25 C17.375,8.57292 17.6016,8.0625 18.0547,7.71875 C18.5078,7.375 19.1875,7.20313 20.0938,7.20313 L21.4688,7.20313 L21.4688,7.10938 C21.4688,6.65104 21.3203,6.29688 21.0234,6.04688 C20.7266,5.79688 20.3073,5.67188 19.7656,5.67188 C19.4219,5.67188 19.0859,5.71354 18.7578,5.79688 C18.4297,5.88021 18.1146,6.00521 17.8125,6.17188 L17.8125,5.26563 C18.1771,5.11979 18.5313,5.01302 18.875,4.94531 C19.2188,4.8776 19.5469,4.84375 19.8594,4.84375 C20.7344,4.84375 21.3854,5.06771 21.8125,5.51563 C22.2396,5.96354 22.4531,6.64583 22.4531,7.5625 M25.4688,3.28125 L25.4688,4.98438 L27.5,4.98438 L27.5,5.75 L25.4688,5.75 L25.4688,9.01563 C25.4688,9.50521 25.5365,9.82031 25.6719,9.96094 C25.8073,10.1016 26.0781,10.1719 26.4844,10.1719 L27.5,10.1719 L27.5,11 L26.4844,11 C25.724,11 25.1979,10.8568 24.9063,10.5703 C24.6146,10.2839 24.4688,9.76563 24.4688,9.01563 L24.4688,5.75 L23.75,5.75 L23.75,4.98438 L24.4688,4.98438 L24.4688,3.28125 L25.4688,3.28125"/>
</g>

<g fill="none" stroke="#000000" stroke-opacity="1" stroke-width="1" stroke-linecap="square" stroke-linejoin="bevel" transform="matrix(1.99916,0,0,1.99916,25.2238,129.946)"
font-family="sans" font-size="11" font-weight="100" font-style="normal" 
>
</g>

<g fill="none" stroke="#000000" stroke-opacity="1" stroke-width="1" stroke-linecap="square" stroke-linejoin="bevel" transform="matrix(1.99916,0,0,1.99916,25.2238,129.946)"
font-family="Ubuntu" font-size="11" font-weight="400" font-style="normal" 
>
</g>

<g fill="none" stroke="#000000" stroke-opacity="1" stroke-width="1" stroke-linecap="square" stroke-linejoin="bevel" transform="matrix(1.99916,0,0,1.99916,0,287.879)"
font-family="Ubuntu" font-size="11" font-weight="400" font-style="normal" 
>
</g>

<g fill="none" stroke="#000000" stroke-opacity="1" stroke-width="1" stroke-linecap="square" stroke-linejoin="bevel" transform="matrix(1.99916,0,0,1.99916,0,287.879)"
font-family="Ubuntu" font-size="11" font-weight="400" font-style="normal" 
>
</g>

<g fill="none" stroke="#000000" stroke-opacity="1" stroke-width="1" stroke-linecap="square" stroke-linejoin="bevel" transform="matrix(1.99916,0,0,1.99916,0,287.879)"
font-family="Ubuntu" font-size="11" font-weight="400" font-style="normal" 
>
</g>

<g fill="none" stroke="#000000" stroke-opacity="1" stroke-width="1" stroke-linecap="square" stroke-linejoin="round" transform="matrix(1.99916,0,0,1.99916,0,287.879)"
font-family="Ubuntu" font-size="11" font-weight="400" font-style="normal" 
>
<ellipse cx="134.29" cy="-126" rx="65.794" ry="17.5"/>
</g>

<g fill="none" stroke="#000000" stroke-opacity="1" stroke-width="1" stroke-linecap="square" stroke-linejoin="bevel" transform="matrix(1.99916,0,0,1.99916,0,287.879)"
font-family="Ubuntu" font-size="11" font-weight="400" font-style="normal" 
>
</g>

<g fill="none" stroke="#000000" stroke-opacity="1" stroke-width="1" stroke-linecap="square" stroke-linejoin="bevel" transform="matrix(1.99916,0,0,1.99916,200.824,21.9908)"
font-family="Ubuntu" font-size="11" font-weight="400" font-style="normal" 
>
</g>

<g fill="none" stroke="#000000" stroke-opacity="1" stroke-width="1" stroke-linecap="square" stroke-linejoin="bevel" transform="matrix(1.99916,0,0,1.99916,200.824,21.9908)"
font-family="sans" font-size="11" font-weight="100" font-style="normal" 
>
</g>

<g fill="#000000" fill-opacity="1" stroke="#000000" stroke-opacity="1" stroke-width="1" stroke-linecap="square" stroke-linejoin="round" transform="matrix(1.99916,0,0,1.99916,200.824,21.9908)"
font-family="sans" font-size="11" font-weight="100" font-style="normal" 
>
<path vector-effect="none" fill-rule="nonzero" d="M2.79688,2.98438 L3.70313,2.98438 L0.90625,12.0156 L0,12.0156 L2.79688,2.98438 M9.0625,5.21875 L9.0625,6.14063 C8.79167,5.98438 8.51563,5.86719 8.23438,5.78906 C7.95313,5.71094 7.66667,5.67188 7.375,5.67188 C6.73958,5.67188 6.24479,5.875 5.89063,6.28125 C5.53646,6.6875 5.35938,7.26042 5.35938,8 C5.35938,8.72917 5.53646,9.29688 5.89063,9.70313 C6.24479,10.1094 6.73958,10.3125 7.375,10.3125 C7.66667,10.3125 7.95313,10.276 8.23438,10.2031 C8.51563,10.1302 8.79167,10.0156 9.0625,9.85938 L9.0625,10.7656 C8.79167,10.901 8.50781,11 8.21094,11.0625 C7.91406,11.125 7.59896,11.1563 7.26563,11.1563 C6.35938,11.1563 5.64063,10.8724 5.10938,10.3047 C4.57813,9.73698 4.3125,8.96875 4.3125,8 C4.3125,7.02083 4.58073,6.25 5.11719,5.6875 C5.65365,5.125 6.39063,4.84375 7.32813,4.84375 C7.64063,4.84375 7.9401,4.875 8.22656,4.9375 C8.51302,5 8.79167,5.09375 9.0625,5.21875 M15.7813,7.375 L15.7813,11 L14.7969,11 L14.7969,7.40625 C14.7969,6.83333 14.6875,6.40625 14.4688,6.125 C14.25,5.84375 13.9167,5.70313 13.4688,5.70313 C12.9375,5.70313 12.5182,5.8724 12.2109,6.21094 C11.9036,6.54948 11.75,7.01042 11.75,7.59375 L11.75,11 L10.75,11 L10.75,2.64063 L11.75,2.64063 L11.75,5.92188 C11.9792,5.55729 12.2552,5.28646 12.5781,5.10938 C12.901,4.93229 13.2708,4.84375 13.6875,4.84375 C14.375,4.84375 14.8958,5.05729 15.25,5.48438 C15.6042,5.91146 15.7813,6.54167 15.7813,7.375 M20.4844,7.96875 C19.6927,7.96875 19.1432,8.0625 18.8359,8.25 C18.5286,8.4375 18.375,8.75 18.375,9.1875 C18.375,9.53125 18.4896,9.80729 18.7188,10.0156 C18.9479,10.224 19.2604,10.3281 19.6563,10.3281 C20.2083,10.3281 20.6484,10.1328 20.9766,9.74219 C21.3047,9.35156 21.4688,8.83854 21.4688,8.20313 L21.4688,7.96875 L20.4844,7.96875 M22.4531,7.5625 L22.4531,11 L21.4688,11 L21.4688,10.0938 C21.25,10.4583 20.9714,10.7266 20.6328,10.8984 C20.2943,11.0703 19.8802,11.1563 19.3906,11.1563 C18.776,11.1563 18.2865,10.9844 17.9219,10.6406 C17.5573,10.2969 17.375,9.83333 17.375,9.25 C17.375,8.57292 17.6016,8.0625 18.0547,7.71875 C18.5078,7.375 19.1875,7.20313 20.0938,7.20313 L21.4688,7.20313 L21.4688,7.10938 C21.4688,6.65104 21.3203,6.29688 21.0234,6.04688 C20.7266,5.79688 20.3073,5.67188 19.7656,5.67188 C19.4219,5.67188 19.0859,5.71354 18.7578,5.79688 C18.4297,5.88021 18.1146,6.00521 17.8125,6.17188 L17.8125,5.26563 C18.1771,5.11979 18.5313,5.01302 18.875,4.94531 C19.2188,4.8776 19.5469,4.84375 19.8594,4.84375 C20.7344,4.84375 21.3854,5.06771 21.8125,5.51563 C22.2396,5.96354 22.4531,6.64583 22.4531,7.5625 M25.4688,3.28125 L25.4688,4.98438 L27.5,4.98438 L27.5,5.75 L25.4688,5.75 L25.4688,9.01563 C25.4688,9.50521 25.5365,9.82031 25.6719,9.96094 C25.8073,10.1016 26.0781,10.1719 26.4844,10.1719 L27.5,10.1719 L27.5,11 L26.4844,11 C25.724,11 25.1979,10.8568 24.9063,10.5703 C24.6146,10.2839 24.4688,9.76563 24.4688,9.01563 L24.4688,5.75 L23.75,5.75 L23.75,4.98438 L24.4688,4.98438 L24.4688,3.28125 L25.4688,3.28125 M29.875,10.0938 L33.6563,10.0938 L33.6563,11 L28.5781,11 L28.5781,10.0938 C28.9844,9.66667 29.5443,9.09375 30.2578,8.375 C30.9714,7.65625 31.4167,7.19271 31.5938,6.98438 C31.9375,6.58854 32.1797,6.25521 32.3203,5.98438 C32.4609,5.71354 32.5313,5.44792 32.5313,5.1875 C32.5313,4.76042 32.3828,4.41406 32.0859,4.14844 C31.7891,3.88281 31.3958,3.75 30.9063,3.75 C30.5729,3.75 30.2161,3.8099 29.8359,3.92969 C29.4557,4.04948 29.0521,4.22917 28.625,4.46875 L28.625,3.375 C29.0625,3.19792 29.4714,3.0625 29.8516,2.96875 C30.2318,2.875 30.5781,2.82813 30.8906,2.82813 C31.724,2.82813 32.388,3.03646 32.8828,3.45313 C33.3776,3.86979 33.625,4.42708 33.625,5.125 C33.625,5.45833 33.5625,5.77083 33.4375,6.0625 C33.3125,6.35417 33.0885,6.70313 32.7656,7.10938 C32.6719,7.21354 32.3854,7.51302 31.9063,8.00781 C31.4271,8.5026 30.75,9.19792 29.875,10.0938 M40.3594,12.8281 L40.3594,13.5938 L34.6406,13.5938 L34.6406,12.8281 L40.3594,12.8281 M46.2813,7.375 L46.2813,11 L45.2969,11 L45.2969,7.40625 C45.2969,6.83333 45.1875,6.40625 44.9688,6.125 C44.75,5.84375 44.4167,5.70313 43.9688,5.70313 C43.4375,5.70313 43.0182,5.8724 42.7109,6.21094 C42.4036,6.54948 42.25,7.01042 42.25,7.59375 L42.25,11 L41.25,11 L41.25,4.98438 L42.25,4.98438 L42.25,5.92188 C42.4792,5.55729 42.7552,5.28646 43.0781,5.10938 C43.401,4.93229 43.7708,4.84375 44.1875,4.84375 C44.875,4.84375 45.3958,5.05729 45.75,5.48438 C46.1042,5.91146 46.2813,6.54167 46.2813,7.375 M50.5938,5.67188 C50.0625,5.67188 49.6432,5.88021 49.3359,6.29688 C49.0286,6.71354 48.875,7.28125 48.875,8 C48.875,8.71875 49.026,9.28385 49.3281,9.69531 C49.6302,10.1068 50.0521,10.3125 50.5938,10.3125 C51.1146,10.3125 51.5286,10.1068 51.8359,9.69531 C52.1432,9.28385 52.2969,8.71875 52.2969,8 C52.2969,7.28125 52.1432,6.71354 51.8359,6.29688 C51.5286,5.88021 51.1146,5.67188 50.5938,5.67188 M50.5938,4.84375 C51.4479,4.84375 52.1198,5.1224 52.6094,5.67969 C53.099,6.23698 53.3438,7.01042 53.3438,8 C53.3438,8.97917 53.099,9.75 52.6094,10.3125 C52.1198,10.875 51.4479,11.1563 50.5938,11.1563 C49.7292,11.1563 49.0521,10.875 48.5625,10.3125 C48.0729,9.75 47.8281,8.97917 47.8281,8 C47.8281,7.01042 48.0729,6.23698 48.5625,5.67969 C49.0521,5.1224 49.7292,4.84375 50.5938,4.84375 M58.9375,5.89063 L58.9375,2.64063 L59.9219,2.64063 L59.9219,11 L58.9375,11 L58.9375,10.0938 C58.7292,10.4583 58.4661,10.7266 58.1484,10.8984 C57.8307,11.0703 57.4479,11.1563 57,11.1563 C56.2813,11.1563 55.6927,10.8672 55.2344,10.2891 C54.776,9.71094 54.5469,8.94792 54.5469,8 C54.5469,7.05208 54.776,6.28906 55.2344,5.71094 C55.6927,5.13281 56.2813,4.84375 57,4.84375 C57.4479,4.84375 57.8307,4.92969 58.1484,5.10156 C58.4661,5.27344 58.7292,5.53646 58.9375,5.89063 M55.5625,8 C55.5625,8.72917 55.7135,9.29948 56.0156,9.71094 C56.3177,10.1224 56.7292,10.3281 57.25,10.3281 C57.7708,10.3281 58.1823,10.1224 58.4844,9.71094 C58.7865,9.29948 58.9375,8.72917 58.9375,8 C58.9375,7.27083 58.7865,6.70052 58.4844,6.28906 C58.1823,5.8776 57.7708,5.67188 57.25,5.67188 C56.7292,5.67188 56.3177,5.8776 56.0156,6.28906 C55.7135,6.70052 55.5625,7.27083 55.5625,8 M67.0938,7.75 L67.0938,8.23438 L62.5469,8.23438 C62.5885,8.91146 62.7917,9.42708 63.1563,9.78125 C63.5208,10.1354 64.0313,10.3125 64.6875,10.3125 C65.0729,10.3125 65.4427,10.2656 65.7969,10.1719 C66.151,10.0781 66.5052,9.94271 66.8594,9.76563 L66.8594,10.6875 C66.5052,10.8438 66.1406,10.9609 65.7656,11.0391 C65.3906,11.1172 65.0156,11.1563 64.6406,11.1563 C63.6719,11.1563 62.9089,10.8776 62.3516,10.3203 C61.7943,9.76302 61.5156,9.00521 61.5156,8.04688 C61.5156,7.06771 61.7813,6.28906 62.3125,5.71094 C62.8438,5.13281 63.5625,4.84375 64.4688,4.84375 C65.2708,4.84375 65.9089,5.10417 66.3828,5.625 C66.8568,6.14583 67.0938,6.85417 67.0938,7.75 M66.0938,7.45313 C66.0938,6.91146 65.9453,6.47917 65.6484,6.15625 C65.3516,5.83333 64.9583,5.67188 64.4688,5.67188 C63.9167,5.67188 63.4766,5.82813 63.1484,6.14063 C62.8203,6.45313 62.6302,6.89063 62.5781,7.45313 L66.0938,7.45313"/>
</g>

<g fill="none" stroke="#000000" stroke-opacity="1" stroke-width="1" stroke-linecap="square" stroke-linejoin="bevel" transform="matrix(1.99916,0,0,1.99916,200.824,21.9908)"
font-family="sans" font-size="11" font-weight="100" font-style="normal" 
>
</g>

<g fill="none" stroke="#000000" stroke-opacity="1" stroke-width="1" stroke-linecap="square" stroke-linejoin="bevel" transform="matrix(1.99916,0,0,1.99916,200.824,21.9908)"
font-family="Ubuntu" font-size="11" font-weight="400" font-style="normal" 
>
</g>

<g fill="none" stroke="#000000" stroke-opacity="1" stroke-width="1" stroke-linecap="square" stroke-linejoin="bevel" transform="matrix(1.99916,0,0,1.99916,0,287.879)"
font-family="Ubuntu" font-size="11" font-weight="400" font-style="normal" 
>
</g>

<g fill="none" stroke="#000000" stroke-opacity="1" stroke-width="1" stroke-linecap="square" stroke-linejoin="bevel" transform="matrix(1.99916,0,0,1.99916,0,287.879)"
font-family="Ubuntu" font-size="11" font-weight="400" font-style="normal" 
>
</g>

<g fill="none" stroke="#000000" stroke-opacity="1" stroke-width="1" stroke-linecap="square" stroke-linejoin="bevel" transform="matrix(1.99916,0,0,1.99916,0,287.879)"
font-family="Ubuntu" font-size="11" font-weight="400" font-style="normal" 
>
</g>

<g fill="none" stroke="#000000" stroke-opacity="1" stroke-width="1" stroke-linecap="square" stroke-linejoin="round" transform="matrix(1.99916,0,0,1.99916,0,287.879)"
font-family="Ubuntu" font-size="11" font-weight="400" font-style="normal" 
>
<ellipse cx="134.29" cy="-72" rx="65.794" ry="17.5"/>
</g>

<g fill="none" stroke="#000000" stroke-opacity="1" stroke-width="1" stroke-linecap="square" stroke-linejoin="bevel" transform="matrix(1.99916,0,0,1.99916,0,287.879)"
font-family="Ubuntu" font-size="11" font-weight="400" font-style="normal" 
>
</g>

<g fill="none" stroke="#000000" stroke-opacity="1" stroke-width="1" stroke-linecap="square" stroke-linejoin="bevel" transform="matrix(1.99916,0,0,1.99916,200.824,129.946)"
font-family="Ubuntu" font-size="11" font-weight="400" font-style="normal" 
>
</g>

<g fill="none" stroke="#000000" stroke-opacity="1" stroke-width="1" stroke-linecap="square" stroke-linejoin="bevel" transform="matrix(1.99916,0,0,1.99916,200.824,129.946)"
font-family="sans" font-size="11" font-weight="100" font-style="normal" 
>
</g>

<g fill="#000000" fill-opacity="1" stroke="#000000" stroke-opacity="1" stroke-width="1" stroke-linecap="square" stroke-linejoin="round" transform="matrix(1.99916,0,0,1.99916,200.824,129.946)"
font-family="sans" font-size="11" font-weight="100" font-style="normal" 
>
<path vector-effect="none" fill-rule="nonzero" d="M2.79688,2.98438 L3.70313,2.98438 L0.90625,12.0156 L0,12.0156 L2.79688,2.98438 M9.0625,5.21875 L9.0625,6.14063 C8.79167,5.98438 8.51563,5.86719 8.23438,5.78906 C7.95313,5.71094 7.66667,5.67188 7.375,5.67188 C6.73958,5.67188 6.24479,5.875 5.89063,6.28125 C5.53646,6.6875 5.35938,7.26042 5.35938,8 C5.35938,8.72917 5.53646,9.29688 5.89063,9.70313 C6.24479,10.1094 6.73958,10.3125 7.375,10.3125 C7.66667,10.3125 7.95313,10.276 8.23438,10.2031 C8.51563,10.1302 8.79167,10.0156 9.0625,9.85938 L9.0625,10.7656 C8.79167,10.901 8.50781,11 8.21094,11.0625 C7.91406,11.125 7.59896,11.1563 7.26563,11.1563 C6.35938,11.1563 5.64063,10.8724 5.10938,10.3047 C4.57813,9.73698 4.3125,8.96875 4.3125,8 C4.3125,7.02083 4.58073,6.25 5.11719,5.6875 C5.65365,5.125 6.39063,4.84375 7.32813,4.84375 C7.64063,4.84375 7.9401,4.875 8.22656,4.9375 C8.51302,5 8.79167,5.09375 9.0625,5.21875 M15.7813,7.375 L15.7813,11 L14.7969,11 L14.7969,7.40625 C14.7969,6.83333 14.6875,6.40625 14.4688,6.125 C14.25,5.84375 13.9167,5.70313 13.4688,5.70313 C12.9375,5.70313 12.5182,5.8724 12.2109,6.21094 C11.9036,6.54948 11.75,7.01042 11.75,7.59375 L11.75,11 L10.75,11 L10.75,2.64063 L11.75,2.64063 L11.75,5.92188 C11.9792,5.55729 12.2552,5.28646 12.5781,5.10938 C12.901,4.93229 13.2708,4.84375 13.6875,4.84375 C14.375,4.84375 14.8958,5.05729 15.25,5.48438 C15.6042,5.91146 15.7813,6.54167 15.7813,7.375 M20.4844,7.96875 C19.6927,7.96875 19.1432,8.0625 18.8359,8.25 C18.5286,8.4375 18.375,8.75 18.375,9.1875 C18.375,9.53125 18.4896,9.80729 18.7188,10.0156 C18.9479,10.224 19.2604,10.3281 19.6563,10.3281 C20.2083,10.3281 20.6484,10.1328 20.9766,9.74219 C21.3047,9.35156 21.4688,8.83854 21.4688,8.20313 L21.4688,7.96875 L20.4844,7.96875 M22.4531,7.5625 L22.4531,11 L21.4688,11 L21.4688,10.0938 C21.25,10.4583 20.9714,10.7266 20.6328,10.8984 C20.2943,11.0703 19.8802,11.1563 19.3906,11.1563 C18.776,11.1563 18.2865,10.9844 17.9219,10.6406 C17.5573,10.2969 17.375,9.83333 17.375,9.25 C17.375,8.57292 17.6016,8.0625 18.0547,7.71875 C18.5078,7.375 19.1875,7.20313 20.0938,7.20313 L21.4688,7.20313 L21.4688,7.10938 C21.4688,6.65104 21.3203,6.29688 21.0234,6.04688 C20.7266,5.79688 20.3073,5.67188 19.7656,5.67188 C19.4219,5.67188 19.0859,5.71354 18.7578,5.79688 C18.4297,5.88021 18.1146,6.00521 17.8125,6.17188 L17.8125,5.26563 C18.1771,5.11979 18.5313,5.01302 18.875,4.94531 C19.2188,4.8776 19.5469,4.84375 19.8594,4.84375 C20.7344,4.84375 21.3854,5.06771 21.8125,5.51563 C22.2396,5.96354 22.4531,6.64583 22.4531,7.5625 M25.4688,3.28125 L25.4688,4.98438 L27.5,4.98438 L27.5,5.75 L25.4688,5.75 L25.4688,9.01563 C25.4688,9.50521 25.5365,9.82031 25.6719,9.96094 C25.8073,10.1016 26.0781,10.1719 26.4844,10.1719 L27.5,10.1719 L27.5,11 L26.4844,11 C25.724,11 25.1979,10.8568 24.9063,10.5703 C24.6146,10.2839 24.4688,9.76563 24.4688,9.01563 L24.4688,5.75 L23.75,5.75 L23.75,4.98438 L24.4688,4.98438 L24.4688,3.28125 L25.4688,3.28125 M29.125,10.0938 L30.9063,10.0938 L30.9063,3.96875 L28.9688,4.35938 L28.9688,3.375 L30.8906,2.98438 L31.9844,2.98438 L31.9844,10.0938 L33.75,10.0938 L33.75,11 L29.125,11 L29.125,10.0938 M40.3594,12.8281 L40.3594,13.5938 L34.6406,13.5938 L34.6406,12.8281 L40.3594,12.8281 M46.2813,7.375 L46.2813,11 L45.2969,11 L45.2969,7.40625 C45.2969,6.83333 45.1875,6.40625 44.9688,6.125 C44.75,5.84375 44.4167,5.70313 43.9688,5.70313 C43.4375,5.70313 43.0182,5.8724 42.7109,6.21094 C42.4036,6.54948 42.25,7.01042 42.25,7.59375 L42.25,11 L41.25,11 L41.25,4.98438 L42.25,4.98438 L42.25,5.92188 C42.4792,5.55729 42.7552,5.28646 43.0781,5.10938 C43.401,4.93229 43.7708,4.84375 44.1875,4.84375 C44.875,4.84375 45.3958,5.05729 45.75,5.48438 C46.1042,5.91146 46.2813,6.54167 46.2813,7.375 M50.5938,5.67188 C50.0625,5.67188 49.6432,5.88021 49.3359,6.29688 C49.0286,6.71354 48.875,7.28125 48.875,8 C48.875,8.71875 49.026,9.28385 49.3281,9.69531 C49.6302,10.1068 50.0521,10.3125 50.5938,10.3125 C51.1146,10.3125 51.5286,10.1068 51.8359,9.69531 C52.1432,9.28385 52.2969,8.71875 52.2969,8 C52.2969,7.28125 52.1432,6.71354 51.8359,6.29688 C51.5286,5.88021 51.1146,5.67188 50.5938,5.67188 M50.5938,4.84375 C51.4479,4.84375 52.1198,5.1224 52.6094,5.67969 C53.099,6.23698 53.3438,7.01042 53.3438,8 C53.3438,8.97917 53.099,9.75 52.6094,10.3125 C52.1198,10.875 51.4479,11.1563 50.5938,11.1563 C49.7292,11.1563 49.0521,10.875 48.5625,10.3125 C48.0729,9.75 47.8281,8.97917 47.8281,8 C47.8281,7.01042 48.0729,6.23698 48.5625,5.67969 C49.0521,5.1224 49.7292,4.84375 50.5938,4.84375 M58.9375,5.89063 L58.9375,2.64063 L59.9219,2.64063 L59.9219,11 L58.9375,11 L58.9375,10.0938 C58.7292,10.4583 58.4661,10.7266 58.1484,10.8984 C57.8307,11.0703 57.4479,11.1563 57,11.1563 C56.2813,11.1563 55.6927,10.8672 55.2344,10.2891 C54.776,9.71094 54.5469,8.94792 54.5469,8 C54.5469,7.05208 54.776,6.28906 55.2344,5.71094 C55.6927,5.13281 56.2813,4.84375 57,4.84375 C57.4479,4.84375 57.8307,4.92969 58.1484,5.10156 C58.4661,5.27344 58.7292,5.53646 58.9375,5.89063 M55.5625,8 C55.5625,8.72917 55.7135,9.29948 56.0156,9.71094 C56.3177,10.1224 56.7292,10.3281 57.25,10.3281 C57.7708,10.3281 58.1823,10.1224 58.4844,9.71094 C58.7865,9.29948 58.9375,8.72917 58.9375,8 C58.9375,7.27083 58.7865,6.70052 58.4844,6.28906 C58.1823,5.8776 57.7708,5.67188 57.25,5.67188 C56.7292,5.67188 56.3177,5.8776 56.0156,6.28906 C55.7135,6.70052 55.5625,7.27083 55.5625,8 M67.0938,7.75 L67.0938,8.23438 L62.5469,8.23438 C62.5885,8.91146 62.7917,9.42708 63.1563,9.78125 C63.5208,10.1354 64.0313,10.3125 64.6875,10.3125 C65.0729,10.3125 65.4427,10.2656 65.7969,10.1719 C66.151,10.0781 66.5052,9.94271 66.8594,9.76563 L66.8594,10.6875 C66.5052,10.8438 66.1406,10.9609 65.7656,11.0391 C65.3906,11.1172 65.0156,11.1563 64.6406,11.1563 C63.6719,11.1563 62.9089,10.8776 62.3516,10.3203 C61.7943,9.76302 61.5156,9.00521 61.5156,8.04688 C61.5156,7.06771 61.7813,6.28906 62.3125,5.71094 C62.8438,5.13281 63.5625,4.84375 64.4688,4.84375 C65.2708,4.84375 65.9089,5.10417 66.3828,5.625 C66.8568,6.14583 67.0938,6.85417 67.0938,7.75 M66.0938,7.45313 C66.0938,6.91146 65.9453,6.47917 65.6484,6.15625 C65.3516,5.83333 64.9583,5.67188 64.4688,5.67188 C63.9167,5.67188 63.4766,5.82813 63.1484,6.14063 C62.8203,6.45313 62.6302,6.89063 62.5781,7.45313 L66.0938,7.45313"/>
</g>

<g fill="none" stroke="#000000" stroke-opacity="1" stroke-width="1" stroke-linecap="square" stroke-linejoin="bevel" transform="matrix(1.99916,0,0,1.99916,200.824,129.946)"
font-family="sans" font-size="11" font-weight="100" font-style="normal" 
>
</g>

<g fill="none" stroke="#000000" stroke-opacity="1" stroke-width="1" stroke-linecap="square" stroke-linejoin="bevel" transform="matrix(1.99916,0,0,1.99916,200.824,129.946)"
font-family="Ubuntu" font-size="11" font-weight="400" font-style="normal" 
>
</g>

<g fill="none" stroke="#000000" stroke-opacity="1" stroke-width="1" stroke-linecap="square" stroke-linejoin="bevel" transform="matrix(1.99916,0,0,1.99916,0,287.879)"
font-family="Ubuntu" font-size="11" font-weight="400" font-style="normal" 
>
</g>

<g fill="none" stroke="#000000" stroke-opacity="1" stroke-width="1" stroke-linecap="square" stroke-linejoin="bevel" transform="matrix(1.99916,0,0,1.99916,0,287.879)"
font-family="Ubuntu" font-size="11" font-weight="400" font-style="normal" 
>
</g>

<g fill="none" stroke="#000000" stroke-opacity="1" stroke-width="1" stroke-linecap="square" stroke-linejoin="bevel" transform="matrix(1.99916,0,0,1.99916,0,287.879)"
font-family="Ubuntu" font-size="11" font-weight="400" font-style="normal" 
>
</g>

<g fill="none" stroke="#000000" stroke-opacity="1" stroke-width="1" stroke-linecap="square" stroke-linejoin="round" transform="matrix(1.99916,0,0,1.99916,0,287.879)"
font-family="Ubuntu" font-size="11" font-weight="400" font-style="normal" 
>
<ellipse cx="134.29" cy="-18" rx="65.794" ry="17.5"/>
</g>

<g fill="none" stroke="#000000" stroke-opacity="1" stroke-width="1" stroke-linecap="square" stroke-linejoin="bevel" transform="matrix(1.99916,0,0,1.99916,0,287.879)"
font-family="Ubuntu" font-size="11" font-weight="400" font-style="normal" 
>
</g>

<g fill="none" stroke="#000000" stroke-opacity="1" stroke-width="1" stroke-linecap="square" stroke-linejoin="bevel" transform="matrix(1.99916,0,0,1.99916,200.824,237.9)"
font-family="Ubuntu" font-size="11" font-weight="400" font-style="normal" 
>
</g>

<g fill="none" stroke="#000000" stroke-opacity="1" stroke-width="1" stroke-linecap="square" stroke-linejoin="bevel" transform="matrix(1.99916,0,0,1.99916,200.824,237.9)"
font-family="sans" font-size="11" font-weight="100" font-style="normal" 
>
</g>

<g fill="#000000" fill-opacity="1" stroke="#000000" stroke-opacity="1" stroke-width="1" stroke-linecap="square" stroke-linejoin="round" transform="matrix(1.99916,0,0,1.99916,200.824,237.9)"
font-family="sans" font-size="11" font-weight="100" font-style="normal" 
>
<path vector-effect="none" fill-rule="nonzero" d="M2.79688,2.98438 L3.70313,2.98438 L0.90625,12.0156 L0,12.0156 L2.79688,2.98438 M9.0625,5.21875 L9.0625,6.14063 C8.79167,5.98438 8.51563,5.86719 8.23438,5.78906 C7.95313,5.71094 7.66667,5.67188 7.375,5.67188 C6.73958,5.67188 6.24479,5.875 5.89063,6.28125 C5.53646,6.6875 5.35938,7.26042 5.35938,8 C5.35938,8.72917 5.53646,9.29688 5.89063,9.70313 C6.24479,10.1094 6.73958,10.3125 7.375,10.3125 C7.66667,10.3125 7.95313,10.276 8.23438,10.2031 C8.51563,10.1302 8.79167,10.0156 9.0625,9.85938 L9.0625,10.7656 C8.79167,10.901 8.50781,11 8.21094,11.0625 C7.91406,11.125 7.59896,11.1563 7.26563,11.1563 C6.35938,11.1563 5.64063,10.8724 5.10938,10.3047 C4.57813,9.73698 4.3125,8.96875 4.3125,8 C4.3125,7.02083 4.58073,6.25 5.11719,5.6875 C5.65365,5.125 6.39063,4.84375 7.32813,4.84375 C7.64063,4.84375 7.9401,4.875 8.22656,4.9375 C8.51302,5 8.79167,5.09375 9.0625,5.21875 M15.7813,7.375 L15.7813,11 L14.7969,11 L14.7969,7.40625 C14.7969,6.83333 14.6875,6.40625 14.4688,6.125 C14.25,5.84375 13.9167,5.70313 13.4688,5.70313 C12.9375,5.70313 12.5182,5.8724 12.2109,6.21094 C11.9036,6.54948 11.75,7.01042 11.75,7.59375 L11.75,11 L10.75,11 L10.75,2.64063 L11.75,2.64063 L11.75,5.92188 C11.9792,5.55729 12.2552,5.28646 12.5781,5.10938 C12.901,4.93229 13.2708,4.84375 13.6875,4.84375 C14.375,4.84375 14.8958,5.05729 15.25,5.48438 C15.6042,5.91146 15.7813,6.54167 15.7813,7.375 M20.4844,7.96875 C19.6927,7.96875 19.1432,8.0625 18.8359,8.25 C18.5286,8.4375 18.375,8.75 18.375,9.1875 C18.375,9.53125 18.4896,9.80729 18.7188,10.0156 C18.9479,10.224 19.2604,10.3281 19.6563,10.3281 C20.2083,10.3281 20.6484,10.1328 20.9766,9.74219 C21.3047,9.35156 21.4688,8.83854 21.4688,8.20313 L21.4688,7.96875 L20.4844,7.96875 M22.4531,7.5625 L22.4531,11 L21.4688,11 L21.4688,10.0938 C21.25,10.4583 20.9714,10.7266 20.6328,10.8984 C20.2943,11.0703 19.8802,11.1563 19.3906,11.1563 C18.776,11.1563 18.2865,10.9844 17.9219,10.6406 C17.5573,10.2969 17.375,9.83333 17.375,9.25 C17.375,8.57292 17.6016,8.0625 18.0547,7.71875 C18.5078,7.375 19.1875,7.20313 20.0938,7.20313 L21.4688,7.20313 L21.4688,7.10938 C21.4688,6.65104 21.3203,6.29688 21.0234,6.04688 C20.7266,5.79688 20.3073,5.67188 19.7656,5.67188 C19.4219,5.67188 19.0859,5.71354 18.7578,5.79688 C18.4297,5.88021 18.1146,6.00521 17.8125,6.17188 L17.8125,5.26563 C18.1771,5.11979 18.5313,5.01302 18.875,4.94531 C19.2188,4.8776 19.5469,4.84375 19.8594,4.84375 C20.7344,4.84375 21.3854,5.06771 21.8125,5.51563 C22.2396,5.96354 22.4531,6.64583 22.4531,7.5625 M25.4688,3.28125 L25.4688,4.98438 L27.5,4.98438 L27.5,5.75 L25.4688,5.75 L25.4688,9.01563 C25.4688,9.50521 25.5365,9.82031 25.6719,9.96094 C25.8073,10.1016 26.0781,10.1719 26.4844,10.1719 L27.5,10.1719 L27.5,11 L26.4844,11 C25.724,11 25.1979,10.8568 24.9063,10.5703 C24.6146,10.2839 24.4688,9.76563 24.4688,9.01563 L24.4688,5.75 L23.75,5.75 L23.75,4.98438 L24.4688,4.98438 L24.4688,3.28125 L25.4688,3.28125 M32.2344,6.67188 C32.7552,6.78646 33.1615,7.01823 33.4531,7.36719 C33.7448,7.71615 33.8906,8.15104 33.8906,8.67188 C33.8906,9.46354 33.6172,10.0755 33.0703,10.5078 C32.5234,10.9401 31.75,11.1563 30.75,11.1563 C30.4063,11.1563 30.0573,11.1224 29.7031,11.0547 C29.349,10.987 28.9844,10.8906 28.6094,10.7656 L28.6094,9.70313 C28.9115,9.88021 29.2396,10.0156 29.5938,10.1094 C29.9479,10.2031 30.3229,10.25 30.7188,10.25 C31.3958,10.25 31.9115,10.1146 32.2656,9.84375 C32.6198,9.57292 32.7969,9.18229 32.7969,8.67188 C32.7969,8.19271 32.6328,7.82031 32.3047,7.55469 C31.9766,7.28906 31.5156,7.15625 30.9219,7.15625 L29.9844,7.15625 L29.9844,6.26563 L30.9688,6.26563 C31.5,6.26563 31.9063,6.15885 32.1875,5.94531 C32.4688,5.73177 32.6094,5.42708 32.6094,5.03125 C32.6094,4.61458 32.4635,4.29688 32.1719,4.07813 C31.8802,3.85938 31.4635,3.75 30.9219,3.75 C30.6302,3.75 30.3125,3.78125 29.9688,3.84375 C29.625,3.90625 29.25,4.00521 28.8438,4.14063 L28.8438,3.17188 C29.2604,3.05729 29.6484,2.97135 30.0078,2.91406 C30.3672,2.85677 30.7031,2.82813 31.0156,2.82813 C31.8385,2.82813 32.4922,3.01563 32.9766,3.39063 C33.4609,3.76563 33.7031,4.27604 33.7031,4.92188 C33.7031,5.35938 33.5755,5.73177 33.3203,6.03906 C33.0651,6.34635 32.7031,6.55729 32.2344,6.67188 M40.3594,12.8281 L40.3594,13.5938 L34.6406,13.5938 L34.6406,12.8281 L40.3594,12.8281 M46.2813,7.375 L46.2813,11 L45.2969,11 L45.2969,7.40625 C45.2969,6.83333 45.1875,6.40625 44.9688,6.125 C44.75,5.84375 44.4167,5.70313 43.9688,5.70313 C43.4375,5.70313 43.0182,5.8724 42.7109,6.21094 C42.4036,6.54948 42.25,7.01042 42.25,7.59375 L42.25,11 L41.25,11 L41.25,4.98438 L42.25,4.98438 L42.25,5.92188 C42.4792,5.55729 42.7552,5.28646 43.0781,5.10938 C43.401,4.93229 43.7708,4.84375 44.1875,4.84375 C44.875,4.84375 45.3958,5.05729 45.75,5.48438 C46.1042,5.91146 46.2813,6.54167 46.2813,7.375 M50.5938,5.67188 C50.0625,5.67188 49.6432,5.88021 49.3359,6.29688 C49.0286,6.71354 48.875,7.28125 48.875,8 C48.875,8.71875 49.026,9.28385 49.3281,9.69531 C49.6302,10.1068 50.0521,10.3125 50.5938,10.3125 C51.1146,10.3125 51.5286,10.1068 51.8359,9.69531 C52.1432,9.28385 52.2969,8.71875 52.2969,8 C52.2969,7.28125 52.1432,6.71354 51.8359,6.29688 C51.5286,5.88021 51.1146,5.67188 50.5938,5.67188 M50.5938,4.84375 C51.4479,4.84375 52.1198,5.1224 52.6094,5.67969 C53.099,6.23698 53.3438,7.01042 53.3438,8 C53.3438,8.97917 53.099,9.75 52.6094,10.3125 C52.1198,10.875 51.4479,11.1563 50.5938,11.1563 C49.7292,11.1563 49.0521,10.875 48.5625,10.3125 C48.0729,9.75 47.8281,8.97917 47.8281,8 C47.8281,7.01042 48.0729,6.23698 48.5625,5.67969 C49.0521,5.1224 49.7292,4.84375 50.5938,4.84375 M58.9375,5.89063 L58.9375,2.64063 L59.9219,2.64063 L59.9219,11 L58.9375,11 L58.9375,10.0938 C58.7292,10.4583 58.4661,10.7266 58.1484,10.8984 C57.8307,11.0703 57.4479,11.1563 57,11.1563 C56.2813,11.1563 55.6927,10.8672 55.2344,10.2891 C54.776,9.71094 54.5469,8.94792 54.5469,8 C54.5469,7.05208 54.776,6.28906 55.2344,5.71094 C55.6927,5.13281 56.2813,4.84375 57,4.84375 C57.4479,4.84375 57.8307,4.92969 58.1484,5.10156 C58.4661,5.27344 58.7292,5.53646 58.9375,5.89063 M55.5625,8 C55.5625,8.72917 55.7135,9.29948 56.0156,9.71094 C56.3177,10.1224 56.7292,10.3281 57.25,10.3281 C57.7708,10.3281 58.1823,10.1224 58.4844,9.71094 C58.7865,9.29948 58.9375,8.72917 58.9375,8 C58.9375,7.27083 58.7865,6.70052 58.4844,6.28906 C58.1823,5.8776 57.7708,5.67188 57.25,5.67188 C56.7292,5.67188 56.3177,5.8776 56.0156,6.28906 C55.7135,6.70052 55.5625,7.27083 55.5625,8 M67.0938,7.75 L67.0938,8.23438 L62.5469,8.23438 C62.5885,8.91146 62.7917,9.42708 63.1563,9.78125 C63.5208,10.1354 64.0313,10.3125 64.6875,10.3125 C65.0729,10.3125 65.4427,10.2656 65.7969,10.1719 C66.151,10.0781 66.5052,9.94271 66.8594,9.76563 L66.8594,10.6875 C66.5052,10.8438 66.1406,10.9609 65.7656,11.0391 C65.3906,11.1172 65.0156,11.1563 64.6406,11.1563 C63.6719,11.1563 62.9089,10.8776 62.3516,10.3203 C61.7943,9.76302 61.5156,9.00521 61.5156,8.04688 C61.5156,7.06771 61.7813,6.28906 62.3125,5.71094 C62.8438,5.13281 63.5625,4.84375 64.4688,4.84375 C65.2708,4.84375 65.9089,5.10417 66.3828,5.625 C66.8568,6.14583 67.0938,6.85417 67.0938,7.75 M66.0938,7.45313 C66.0938,6.91146 65.9453,6.47917 65.6484,6.15625 C65.3516,5.83333 64.9583,5.67188 64.4688,5.67188 C63.9167,5.67188 63.4766,5.82813 63.1484,6.14063 C62.8203,6.45313 62.6302,6.89063 62.5781,7.45313 L66.0938,7.45313"/>
</g>

<g fill="none" stroke="#000000" stroke-opacity="1" stroke-width="1" stroke-linecap="square" stroke-linejoin="bevel" transform="matrix(1.99916,0,0,1.99916,200.824,237.9)"
font-family="sans" font-size="11" font-weight="100" font-style="normal" 
>
</g>

<g fill="none" stroke="#000000" stroke-opacity="1" stroke-width="1" stroke-linecap="square" stroke-linejoin="bevel" transform="matrix(1.99916,0,0,1.99916,200.824,237.9)"
font-family="Ubuntu" font-size="11" font-weight="400" font-style="normal" 
>
</g>

<g fill="none" stroke="#000000" stroke-opacity="1" stroke-width="1" stroke-linecap="square" stroke-linejoin="bevel" transform="matrix(1.99916,0,0,1.99916,0,287.879)"
font-family="Ubuntu" font-size="11" font-weight="400" font-style="normal" 
>
</g>

<g fill="none" stroke="#000000" stroke-opacity="1" stroke-width="1" stroke-linecap="square" stroke-linejoin="bevel" transform="matrix(1.99916,0,0,1.99916,0,287.879)"
font-family="Ubuntu" font-size="11" font-weight="400" font-style="normal" 
>
</g>

<g fill="none" stroke="#000000" stroke-opacity="1" stroke-width="1" stroke-linecap="square" stroke-linejoin="bevel" transform="matrix(1.99916,0,0,1.99916,0,287.879)"
font-family="Ubuntu" font-size="11" font-weight="400" font-style="normal" 
>
</g>

<g fill="none" stroke="#000000" stroke-opacity="1" stroke-width="1" stroke-linecap="square" stroke-linejoin="round" transform="matrix(1.99916,0,0,1.99916,0,287.879)"
font-family="Ubuntu" font-size="11" font-weight="400" font-style="normal" 
>
<path vector-effect="none" fill-rule="evenodd" d="M54.214,-81.909 C58.718,-84.691 63.424,-87.542 68,-90 C78.011,-95.377 89.327,-100.4 99.693,-105.04 "/>
</g>

<g fill="none" stroke="#000000" stroke-opacity="1" stroke-width="1" stroke-linecap="square" stroke-linejoin="bevel" transform="matrix(1.99916,0,0,1.99916,0,287.879)"
font-family="Ubuntu" font-size="11" font-weight="400" font-style="normal" 
>
</g>

<g fill="none" stroke="#000000" stroke-opacity="1" stroke-width="1" stroke-linecap="square" stroke-linejoin="bevel" transform="matrix(1.99916,0,0,1.99916,0,287.879)"
font-family="Ubuntu" font-size="11" font-weight="400" font-style="normal" 
>
</g>

<g fill="#000000" fill-opacity="1" stroke="#000000" stroke-opacity="1" stroke-width="1" stroke-linecap="square" stroke-linejoin="round" transform="matrix(1.99916,0,0,1.99916,0,287.879)"
font-family="Ubuntu" font-size="11" font-weight="400" font-style="normal" 
>
<path vector-effect="none" fill-rule="evenodd" d="M99.693,-105.04 L101.149,-101.825 L108.88,-109.2 L98.237,-108.255 L99.693,-105.04"/>
</g>

<g fill="none" stroke="#000000" stroke-opacity="1" stroke-width="1" stroke-linecap="square" stroke-linejoin="bevel" transform="matrix(1.99916,0,0,1.99916,0,287.879)"
font-family="Ubuntu" font-size="11" font-weight="400" font-style="normal" 
>
</g>

<g fill="none" stroke="#000000" stroke-opacity="1" stroke-width="1" stroke-linecap="square" stroke-linejoin="bevel" transform="matrix(1.99916,0,0,1.99916,0,287.879)"
font-family="Ubuntu" font-size="11" font-weight="400" font-style="normal" 
>
</g>

<g fill="none" stroke="#000000" stroke-opacity="1" stroke-width="1" stroke-linecap="square" stroke-linejoin="bevel" transform="matrix(1.99916,0,0,1.99916,0,287.879)"
font-family="Ubuntu" font-size="11" font-weight="400" font-style="normal" 
>
</g>

<g fill="none" stroke="#000000" stroke-opacity="1" stroke-width="1" stroke-linecap="square" stroke-linejoin="bevel" transform="matrix(1.99916,0,0,1.99916,0,287.879)"
font-family="Ubuntu" font-size="11" font-weight="400" font-style="normal" 
>
</g>

<g fill="none" stroke="#000000" stroke-opacity="1" stroke-width="1" stroke-linecap="square" stroke-linejoin="round" transform="matrix(1.99916,0,0,1.99916,0,287.879)"
font-family="Ubuntu" font-size="11" font-weight="400" font-style="normal" 
>
<path vector-effect="none" fill-rule="evenodd" d="M54.028,-66.084 C56.711,-65.9 59.52,-65.747 62.412,-65.624 "/>
</g>

<g fill="none" stroke="#000000" stroke-opacity="1" stroke-width="1" stroke-linecap="square" stroke-linejoin="bevel" transform="matrix(1.99916,0,0,1.99916,0,287.879)"
font-family="Ubuntu" font-size="11" font-weight="400" font-style="normal" 
>
</g>

<g fill="none" stroke="#000000" stroke-opacity="1" stroke-width="1" stroke-linecap="square" stroke-linejoin="bevel" transform="matrix(1.99916,0,0,1.99916,0,287.879)"
font-family="Ubuntu" font-size="11" font-weight="400" font-style="normal" 
>
</g>

<g fill="#000000" fill-opacity="1" stroke="#000000" stroke-opacity="1" stroke-width="1" stroke-linecap="square" stroke-linejoin="round" transform="matrix(1.99916,0,0,1.99916,0,287.879)"
font-family="Ubuntu" font-size="11" font-weight="400" font-style="normal" 
>
<path vector-effect="none" fill-rule="evenodd" d="M62.412,-65.624 L62.3063,-62.09 L72.509,-65.322 L62.5177,-69.1579 L62.412,-65.624"/>
</g>

<g fill="none" stroke="#000000" stroke-opacity="1" stroke-width="1" stroke-linecap="square" stroke-linejoin="bevel" transform="matrix(1.99916,0,0,1.99916,0,287.879)"
font-family="Ubuntu" font-size="11" font-weight="400" font-style="normal" 
>
</g>

<g fill="none" stroke="#000000" stroke-opacity="1" stroke-width="1" stroke-linecap="square" stroke-linejoin="bevel" transform="matrix(1.99916,0,0,1.99916,0,287.879)"
font-family="Ubuntu" font-size="11" font-weight="400" font-style="normal" 
>
</g>

<g fill="none" stroke="#000000" stroke-opacity="1" stroke-width="1" stroke-linecap="square" stroke-linejoin="bevel" transform="matrix(1.99916,0,0,1.99916,0,287.879)"
font-family="Ubuntu" font-size="11" font-weight="400" font-style="normal" 
>
</g>

<g fill="none" stroke="#000000" stroke-opacity="1" stroke-width="1" stroke-linecap="square" stroke-linejoin="bevel" transform="matrix(1.99916,0,0,1.99916,0,287.879)"
font-family="Ubuntu" font-size="11" font-weight="400" font-style="normal" 
>
</g>

<g fill="none" stroke="#000000" stroke-opacity="1" stroke-width="1" stroke-linecap="square" stroke-linejoin="round" transform="matrix(1.99916,0,0,1.99916,0,287.879)"
font-family="Ubuntu" font-size="11" font-weight="400" font-style="normal" 
>
<path vector-effect="none" fill-rule="evenodd" d="M41.637,-53.811 C49.177,-47.405 58.848,-40.916 68,-36 C69.523,-35.182 71.076,-34.372 72.652,-33.574 "/>
</g>

<g fill="none" stroke="#000000" stroke-opacity="1" stroke-width="1" stroke-linecap="square" stroke-linejoin="bevel" transform="matrix(1.99916,0,0,1.99916,0,287.879)"
font-family="Ubuntu" font-size="11" font-weight="400" font-style="normal" 
>
</g>

<g fill="none" stroke="#000000" stroke-opacity="1" stroke-width="1" stroke-linecap="square" stroke-linejoin="bevel" transform="matrix(1.99916,0,0,1.99916,0,287.879)"
font-family="Ubuntu" font-size="11" font-weight="400" font-style="normal" 
>
</g>

<g fill="#000000" fill-opacity="1" stroke="#000000" stroke-opacity="1" stroke-width="1" stroke-linecap="square" stroke-linejoin="round" transform="matrix(1.99916,0,0,1.99916,0,287.879)"
font-family="Ubuntu" font-size="11" font-weight="400" font-style="normal" 
>
<path vector-effect="none" fill-rule="evenodd" d="M72.652,-33.574 L71.1018,-30.3501 L81.863,-29.145 L74.2022,-36.7978 L72.652,-33.574"/>
</g>

<g fill="none" stroke="#000000" stroke-opacity="1" stroke-width="1" stroke-linecap="square" stroke-linejoin="bevel" transform="matrix(1.99916,0,0,1.99916,0,287.879)"
font-family="Ubuntu" font-size="11" font-weight="400" font-style="normal" 
>
</g>

<g fill="none" stroke="#000000" stroke-opacity="1" stroke-width="1" stroke-linecap="square" stroke-linejoin="bevel" transform="matrix(1.99916,0,0,1.99916,0,287.879)"
font-family="Ubuntu" font-size="11" font-weight="400" font-style="normal" 
>
</g>

<g fill="none" stroke="#000000" stroke-opacity="1" stroke-width="1" stroke-linecap="square" stroke-linejoin="bevel" transform="matrix(1.99916,0,0,1.99916,0,287.879)"
font-family="Ubuntu" font-size="11" font-weight="400" font-style="normal" 
>
</g>

<g fill="none" stroke="#000000" stroke-opacity="1" stroke-width="1" stroke-linecap="square" stroke-linejoin="bevel" transform="matrix(1.99916,0,0,1.99916,0,287.879)"
font-family="Ubuntu" font-size="11" font-weight="400" font-style="normal" 
>
</g>

<g fill="none" stroke="#000000" stroke-opacity="1" stroke-width="1" stroke-linecap="square" stroke-linejoin="round" transform="matrix(1.99916,0,0,1.99916,0,287.879)"
font-family="Ubuntu" font-size="11" font-weight="400" font-style="normal" 
>
<path vector-effect="none" fill-rule="evenodd" d="M81.863,-114.85 C77.117,-112.69 72.431,-110.38 68,-108 C61.851,-104.7 55.467,-100.68 49.654,-96.463 "/>
</g>

<g fill="none" stroke="#000000" stroke-opacity="1" stroke-width="1" stroke-linecap="square" stroke-linejoin="bevel" transform="matrix(1.99916,0,0,1.99916,0,287.879)"
font-family="Ubuntu" font-size="11" font-weight="400" font-style="normal" 
>
</g>

<g fill="none" stroke="#000000" stroke-opacity="1" stroke-width="1" stroke-linecap="square" stroke-linejoin="bevel" transform="matrix(1.99916,0,0,1.99916,0,287.879)"
font-family="Ubuntu" font-size="11" font-weight="400" font-style="normal" 
>
</g>

<g fill="#000000" fill-opacity="1" stroke="#000000" stroke-opacity="1" stroke-width="1" stroke-linecap="square" stroke-linejoin="round" transform="matrix(1.99916,0,0,1.99916,0,287.879)"
font-family="Ubuntu" font-size="11" font-weight="400" font-style="normal" 
>
<path vector-effect="none" fill-rule="evenodd" d="M49.654,-96.463 L47.4581,-99.2689 L41.637,-90.189 L51.8499,-93.657 L49.654,-96.463"/>
</g>

<g fill="none" stroke="#000000" stroke-opacity="1" stroke-width="1" stroke-linecap="square" stroke-linejoin="bevel" transform="matrix(1.99916,0,0,1.99916,0,287.879)"
font-family="Ubuntu" font-size="11" font-weight="400" font-style="normal" 
>
</g>

<g fill="none" stroke="#000000" stroke-opacity="1" stroke-width="1" stroke-linecap="square" stroke-linejoin="bevel" transform="matrix(1.99916,0,0,1.99916,0,287.879)"
font-family="Ubuntu" font-size="11" font-weight="400" font-style="normal" 
>
</g>

<g fill="none" stroke="#000000" stroke-opacity="1" stroke-width="1" stroke-linecap="square" stroke-linejoin="bevel" transform="matrix(1.99916,0,0,1.99916,0,287.879)"
font-family="Ubuntu" font-size="11" font-weight="400" font-style="normal" 
>
</g>

<g fill="none" stroke="#000000" stroke-opacity="1" stroke-width="1" stroke-linecap="square" stroke-linejoin="bevel" transform="matrix(1.99916,0,0,1.99916,0,287.879)"
font-family="Ubuntu" font-size="11" font-weight="400" font-style="normal" 
>
</g>

<g fill="none" stroke="#000000" stroke-opacity="1" stroke-width="1" stroke-linecap="square" stroke-linejoin="round" transform="matrix(1.99916,0,0,1.99916,0,287.879)"
font-family="Ubuntu" font-size="11" font-weight="400" font-style="normal" 
>
<path vector-effect="none" fill-rule="evenodd" d="M72.509,-78.678 C69.682,-78.627 66.887,-78.55 64.157,-78.447 "/>
</g>

<g fill="none" stroke="#000000" stroke-opacity="1" stroke-width="1" stroke-linecap="square" stroke-linejoin="bevel" transform="matrix(1.99916,0,0,1.99916,0,287.879)"
font-family="Ubuntu" font-size="11" font-weight="400" font-style="normal" 
>
</g>

<g fill="none" stroke="#000000" stroke-opacity="1" stroke-width="1" stroke-linecap="square" stroke-linejoin="bevel" transform="matrix(1.99916,0,0,1.99916,0,287.879)"
font-family="Ubuntu" font-size="11" font-weight="400" font-style="normal" 
>
</g>

<g fill="#000000" fill-opacity="1" stroke="#000000" stroke-opacity="1" stroke-width="1" stroke-linecap="square" stroke-linejoin="round" transform="matrix(1.99916,0,0,1.99916,0,287.879)"
font-family="Ubuntu" font-size="11" font-weight="400" font-style="normal" 
>
<path vector-effect="none" fill-rule="evenodd" d="M64.157,-78.447 L63.9711,-81.9921 L54.028,-77.916 L64.3428,-74.9019 L64.157,-78.447"/>
</g>

<g fill="none" stroke="#000000" stroke-opacity="1" stroke-width="1" stroke-linecap="square" stroke-linejoin="bevel" transform="matrix(1.99916,0,0,1.99916,0,287.879)"
font-family="Ubuntu" font-size="11" font-weight="400" font-style="normal" 
>
</g>

<g fill="none" stroke="#000000" stroke-opacity="1" stroke-width="1" stroke-linecap="square" stroke-linejoin="bevel" transform="matrix(1.99916,0,0,1.99916,0,287.879)"
font-family="Ubuntu" font-size="11" font-weight="400" font-style="normal" 
>
</g>

<g fill="none" stroke="#000000" stroke-opacity="1" stroke-width="1" stroke-linecap="square" stroke-linejoin="bevel" transform="matrix(1.99916,0,0,1.99916,0,287.879)"
font-family="Ubuntu" font-size="11" font-weight="400" font-style="normal" 
>
</g>

<g fill="none" stroke="#000000" stroke-opacity="1" stroke-width="1" stroke-linecap="square" stroke-linejoin="bevel" transform="matrix(1.99916,0,0,1.99916,0,287.879)"
font-family="Ubuntu" font-size="11" font-weight="400" font-style="normal" 
>
</g>

<g fill="none" stroke="#000000" stroke-opacity="1" stroke-width="1" stroke-linecap="square" stroke-linejoin="round" transform="matrix(1.99916,0,0,1.99916,0,287.879)"
font-family="Ubuntu" font-size="11" font-weight="400" font-style="normal" 
>
<path vector-effect="none" fill-rule="evenodd" d="M108.88,-34.796 C96.378,-40.56 81.076,-46.976 68,-54 C66.284,-54.922 64.55,-55.899 62.815,-56.907 "/>
</g>

<g fill="none" stroke="#000000" stroke-opacity="1" stroke-width="1" stroke-linecap="square" stroke-linejoin="bevel" transform="matrix(1.99916,0,0,1.99916,0,287.879)"
font-family="Ubuntu" font-size="11" font-weight="400" font-style="normal" 
>
</g>

<g fill="none" stroke="#000000" stroke-opacity="1" stroke-width="1" stroke-linecap="square" stroke-linejoin="bevel" transform="matrix(1.99916,0,0,1.99916,0,287.879)"
font-family="Ubuntu" font-size="11" font-weight="400" font-style="normal" 
>
</g>

<g fill="#000000" fill-opacity="1" stroke="#000000" stroke-opacity="1" stroke-width="1" stroke-linecap="square" stroke-linejoin="round" transform="matrix(1.99916,0,0,1.99916,0,287.879)"
font-family="Ubuntu" font-size="11" font-weight="400" font-style="normal" 
>
<path vector-effect="none" fill-rule="evenodd" d="M62.815,-56.907 L64.6294,-59.9173 L54.214,-62.091 L61.0006,-53.8966 L62.815,-56.907"/>
</g>

<g fill="none" stroke="#000000" stroke-opacity="1" stroke-width="1" stroke-linecap="square" stroke-linejoin="bevel" transform="matrix(1.99916,0,0,1.99916,0,287.879)"
font-family="Ubuntu" font-size="11" font-weight="400" font-style="normal" 
>
</g>

<g fill="none" stroke="#000000" stroke-opacity="1" stroke-width="1" stroke-linecap="square" stroke-linejoin="bevel" transform="matrix(1,0,0,1,0,0)"
font-family="Ubuntu" font-size="11" font-weight="400" font-style="normal" 
>
</g>
</g>
</svg>
